<?xml version="1.0" encoding="utf-8"?>
<!-- Generator: Adobe Illustrator 16.0.4, SVG Export Plug-In . SVG Version: 6.00 Build 0)  -->
<!DOCTYPE svg PUBLIC "-//W3C//DTD SVG 1.1//EN" "http://www.w3.org/Graphics/SVG/1.1/DTD/svg11.dtd">
<svg version="1.1" id="Layer_1" xmlns="http://www.w3.org/2000/svg" xmlns:xlink="http://www.w3.org/1999/xlink" x="0px" y="0px"
	 width="560.499px" height="496.833px" viewBox="0 0 560.499 496.833" enable-background="new 0 0 560.499 496.833"
	 xml:space="preserve">
<path d="M0,315.394c0-95.218,0-190.438,0-285.657c0.331-1.966,0.51-3.973,1.018-5.892c2.073-7.837,4.95-15.392,13.109-18.703
	c4.948-2.008,10.337-3.045,15.612-4.092C33.401,0.322,37.206,0.323,40.948,0c40.785,0,81.57,0,122.355,0
	c0.935,0.136,1.866,0.365,2.804,0.394c16.424,0.506,32.139,4.07,46.191,12.695c31.402,19.274,50.395,46.707,53.209,84.111
	c1.225,16.262-1.152,32.089-7.92,47.029c-2.795,6.174-6.25,12.049-9.512,18.263c0.594,0.744,1.405,1.752,2.207,2.768
	c17.551,22.237,26.551,47.317,25.227,75.838c-1.121,24.202-8.48,46.192-23.67,65.229c-21.449,26.879-49.16,41.611-83.879,41.764
	c-42.807,0.188-85.615,0.143-128.421-0.062c-6.179-0.027-12.471-0.988-18.5-2.412c-11.182-2.639-18.062-9.721-19.693-21.4
	C0.934,321.271,0.451,318.335,0,315.394z M83.992,264.209c1.179,0,2.134,0,3.09,0c24.041,0,48.082,0.019,72.123-0.021
	c3.078-0.005,6.183-0.095,9.225-0.511c10.146-1.39,17.627-6.442,20.959-16.438c3.382-10.146,3.004-20.486,0.534-30.748
	c-1.806-7.497-6.739-12.249-14.296-13.564c-6.684-1.165-13.497-1.599-20.258-2.323c-5.471-0.585-11.037-0.683-16.401-1.777
	c-8.701-1.776-15.142-6.606-17.408-15.685c-2.722-10.898-2.775-21.859-0.005-32.749c1.828-7.184,6.208-12.347,13.455-14.423
	c4.568-1.308,9.292-2.248,14.01-2.824c6.426-0.784,12.975-0.661,19.357-1.662c8.047-1.261,11.947-5.625,12.781-13.634
	c0.494-4.75,0.699-9.571,0.518-14.34c-0.333-8.751-4.536-14.354-13.02-16.706c-5.026-1.394-10.351-2.303-15.554-2.363
	c-22.17-0.253-44.345-0.109-66.518-0.103c-0.851,0-1.701,0.072-2.592,0.112C83.992,144.434,83.992,204.117,83.992,264.209z"/>
<path d="M284.862,464.017c0-95.219,0-190.438,0-285.657c0.33-1.966,0.51-3.973,1.018-5.892c2.072-7.837,4.949-15.392,13.109-18.703
	c4.947-2.008,10.336-3.045,15.611-4.092c3.662-0.727,7.467-0.726,11.209-1.049c40.785,0,81.57,0,122.355,0
	c0.934,0.136,1.865,0.365,2.803,0.394c16.424,0.506,32.139,4.07,46.191,12.695c31.402,19.274,50.395,46.707,53.211,84.111
	c1.223,16.262-1.154,32.09-7.92,47.029c-2.797,6.174-6.25,12.049-9.514,18.264c0.594,0.744,1.406,1.752,2.207,2.768
	c17.551,22.236,26.551,47.316,25.229,75.838c-1.123,24.201-8.482,46.191-23.672,65.229c-21.447,26.879-49.158,41.611-83.879,41.764
	c-42.807,0.188-85.615,0.143-128.42-0.062c-6.18-0.027-12.471-0.988-18.5-2.412c-11.184-2.639-18.062-9.721-19.693-21.4
	C285.796,469.894,285.313,466.958,284.862,464.017z M368.854,412.833c1.178,0,2.133,0,3.09,0c24.041,0,48.082,0.018,72.121-0.021
	c3.078-0.006,6.184-0.096,9.225-0.512c10.146-1.389,17.627-6.441,20.959-16.438c3.383-10.146,3.004-20.486,0.535-30.748
	c-1.807-7.498-6.74-12.25-14.297-13.564c-6.684-1.166-13.496-1.6-20.258-2.324c-5.471-0.584-11.037-0.682-16.4-1.777
	c-8.701-1.775-15.143-6.605-17.408-15.684c-2.723-10.898-2.775-21.859-0.006-32.75c1.828-7.184,6.209-12.346,13.455-14.422
	c4.568-1.309,9.293-2.248,14.01-2.824c6.426-0.783,12.975-0.66,19.357-1.662c8.047-1.262,11.947-5.625,12.781-13.635
	c0.494-4.75,0.699-9.57,0.518-14.34c-0.332-8.75-4.535-14.354-13.02-16.706c-5.025-1.394-10.35-2.303-15.553-2.363
	c-22.17-0.252-44.346-0.108-66.518-0.102c-0.852,0-1.701,0.071-2.592,0.111C368.854,293.058,368.854,352.739,368.854,412.833z"/>
</svg>
