<?xml version="1.0" encoding="utf-8"?>
<!-- Generator: Adobe Illustrator 16.0.4, SVG Export Plug-In . SVG Version: 6.00 Build 0)  -->
<!DOCTYPE svg PUBLIC "-//W3C//DTD SVG 1.1//EN" "http://www.w3.org/Graphics/SVG/1.1/DTD/svg11.dtd">
<svg version="1.1" id="Capa_1" xmlns="http://www.w3.org/2000/svg" xmlns:xlink="http://www.w3.org/1999/xlink" x="0px" y="0px"
	 width="560px" height="348.522px" viewBox="203.873 129.966 560 348.522" enable-background="new 203.873 129.966 560 348.522"
	 xml:space="preserve">
<path d="M684.5,154.5H323.229c-52.286,0.001-94.822,42.538-94.822,94.826c0,9.476,1.398,18.633,3.997,27.273
	c0.166,0.435,0.308,0.883,0.427,1.343l0.044,0.177c12.217,38.256,48.104,66.035,90.355,66.035h321.286
	c42.248,0,78.134-27.777,90.354-66.028l0.047-0.183c0.118-0.463,0.262-0.913,0.429-1.35c2.597-8.637,3.994-17.793,3.994-27.266
	c0-52.288-42.538-94.828-94.823-94.828h-91.857c-6.774,0-12.268-5.493-12.268-12.267s5.493-12.267,12.268-12.267h91.857
	c65.813,0,119.357,53.544,119.357,119.359c0,12.385-1.895,24.33-5.411,35.57l-20.566,80.404
	c-16.555,62.459-80.368,113.188-142.277,113.188h-223.49c-61.91,0-125.723-50.729-142.25-113.084l-20.591-80.498
	c-3.516-11.24-5.414-23.194-5.414-35.579c0-65.816,53.543-119.361,119.356-119.361h248.144 M249.505,343.135l4.114,16.086
	c13.598,51.303,67.881,94.732,118.508,94.732h223.49c50.627,0,104.909-43.428,118.535-94.836l4.089-15.984
	c-20.312,15.998-45.925,25.555-73.728,25.555H323.229C295.429,368.688,269.816,359.133,249.505,343.135z"/>
<g>
	<path d="M724.918,218.667c-13.247-27.827-41.097-45.564-72.228-45.564c-8.111,0-16.092,1.245-23.704,3.604
		c-7.371-10.206-18.799-16.695-31.585-17.669c-2.874-0.217-5.761-0.151-8.574,0.199c-17.869,2.202-32.08,15.01-36.384,32.028
		c-4.684,0.073-9.357,0.533-13.914,1.409c-36.868,7.081-63.798,39.037-64.796,76.433h-22.399c-3.836,0-6.945,3.109-6.945,6.945
		c0,8.401,18.228,31.61,27.055,41.534c13.764,15.472,33.964,33.914,52.031,33.914l172.025-2
		C741.5,350.5,752.639,219.316,724.918,218.667z M723.672,246.039c-13.18,0-24.022,10.166-25.115,23.067h-5.691
		c0-0.068,0.005-0.135,0.005-0.204c0-5.707-1.17-11.144-3.28-16.089c5.129-9.448,20.328-20.287,34.082-20.287
		C744.307,232.526,736.852,246.039,723.672,246.039z M734.785,269.106h-22.227c1.006-5.22,5.604-9.178,11.113-9.178
		S733.779,263.887,734.785,269.106z M652.69,186.994c24.113,0,45.84,12.877,57.488,33.426c-4.426,1.185-8.67,2.94-12.623,5.204
		c-9.539-15.591-26.376-25.12-44.864-25.12c-15.27,0-29.369,6.43-39.253,17.558c-2.989-3.368-6.271-6.474-9.79-9.297
		c1.642-1.815,3.388-3.546,5.214-5.164C620.953,192.891,636.518,186.994,652.69,186.994z M651.739,227.771
		c-2.754,0-5.501,0.272-8.157,0.811c-6.63,1.335-12.628,4.251-17.636,8.303c-1.198-2.505-2.534-4.944-3.986-7.313
		c7.306-9.565,18.504-15.177,30.73-15.177c14.093,0,26.868,7.534,33.739,19.744c-1.887,1.888-3.651,3.909-5.246,6.085
		C673.707,232.55,663.273,227.771,651.739,227.771z M678.981,268.903c0,0.068-0.005,0.135-0.006,0.204h-54.474
		c-0.001-0.068-0.006-0.135-0.006-0.204c0-12.928,9.18-24.158,21.835-26.706c1.758-0.355,3.577-0.536,5.408-0.536
		C666.76,241.661,678.981,253.881,678.981,268.903z M590.533,173.02c1.906-0.237,3.863-0.282,5.816-0.133
		c7.503,0.57,14.322,3.947,19.258,9.338c-5.698,2.982-11.064,6.647-15.955,10.978c-2.717,2.407-5.283,5.026-7.652,7.781
		c-7.919-4.337-16.463-7.27-25.373-8.712C570.206,181.979,579.301,174.406,590.533,173.02z M541.15,206.314
		c4.105-0.79,8.328-1.19,12.554-1.19c28.143,0,52.762,17.412,62.202,43.637c-3.383,6.001-5.3,12.895-5.3,20.143
		c0,0.068,0.005,0.135,0.005,0.204h-4.347c-1.131-28.021-24.268-50.471-52.561-50.471c-28.294,0-51.431,22.45-52.562,50.471h-13.52
		C488.615,238.36,510.811,212.14,541.15,206.314z M553.704,246.039c-13.18,0-24.023,10.166-25.115,23.067h-13.548
		c1.117-20.358,18.03-36.58,38.663-36.58s37.546,16.222,38.662,36.58h-13.548C577.726,256.205,566.883,246.039,553.704,246.039z
		 M564.816,269.106h-22.226c1.005-5.22,5.604-9.178,11.113-9.178S563.811,263.887,564.816,269.106z M732.086,280.706
		c0,0-26.417,63-36,63l-172,1c-9.584,0-24.845-17.167-40.803-34.728c-9.307-10.242-16.552-20.239-20.828-26.981L732.086,280.706z"/>
</g>
<path d="M435.9,194.156l-0.178-0.459c-0.004-0.007-0.01-0.015-0.014-0.023c-0.313-0.781-0.76-1.49-1.282-2.155
	c-0.109-0.139-0.206-0.281-0.323-0.413c-0.53-0.606-1.151-1.159-1.863-1.662c-0.133-0.091-0.278-0.177-0.42-0.266
	c-0.296-0.188-0.568-0.392-0.891-0.566l-0.042,0.08c-12.009-6.417-40.638,0.383-55.202,4.534c-0.983-0.512-1.96-1.031-2.955-1.535
	c-31.458-16.014-81.168-34.12-89.15-18.423l-0.009,0.018c0,0.004-0.004,0.008-0.004,0.008l-0.209,0.414
	c-10.87,21.363-12.316,46.079-4.734,68.285c-2.168,2.274-3.819,4.443-4.956,6.507c-10.189,3.401-15.545,7.912-15.807,13.455
	l-0.023,0.489c-2.292,48.365,35.192,89.577,83.553,91.869c48.365,2.29,89.576-35.192,91.868-83.557l0.023-0.49
	c0.066-1.385-0.233-2.75-0.824-4.094C443.698,243.995,445.197,217.705,435.9,194.156z M366.823,282.988
	c-7.111,0.14-14.517,0.041-22.03-0.315c-2.438-0.115-4.861-0.258-7.268-0.421c-0.571-0.039-1.127-0.091-1.694-0.129
	c-1.853-0.136-3.702-0.28-5.532-0.445c-0.596-0.054-1.185-0.113-1.778-0.173c-1.765-0.169-3.528-0.345-5.259-0.544
	c-0.63-0.069-1.247-0.147-1.873-0.223c-1.656-0.197-3.299-0.401-4.917-0.622c-0.684-0.093-1.361-0.192-2.033-0.286
	c-1.497-0.215-2.978-0.439-4.436-0.672c-0.76-0.122-1.521-0.249-2.27-0.375c-1.313-0.224-2.601-0.457-3.878-0.694
	c-0.83-0.155-1.659-0.31-2.469-0.472c-1.183-0.233-2.339-0.482-3.485-0.729c-0.806-0.176-1.621-0.344-2.411-0.526
	c-1.122-0.259-2.203-0.529-3.284-0.8c-0.622-0.156-1.262-0.311-1.868-0.472c-1.159-1.517-2.258-3.07-3.302-4.656
	c-0.369-0.562-0.693-1.146-1.05-1.714c-0.657-1.051-1.318-2.101-1.922-3.178c-0.051-0.09-0.095-0.187-0.146-0.279
	c3.382,0.53,7.344,0.62,11.697,0.36l0.186,0.078l0.867-0.06c15.558-1.095,36.828-6.421,59.199-14.709
	c2.4-0.884,4.756-1.769,7.008-2.656c1.827-0.719,3.705-1.49,5.606-2.286c1.252-0.521,2.491-1.045,3.728-1.575l0.023,0.009
	l1.473-0.638c0.624-0.272,1.231-0.548,1.851-0.823c0.877-0.387,1.75-0.772,2.618-1.163c1.464-0.664,2.905-1.329,4.339-2
	c0.61-0.288,1.229-0.567,1.834-0.855c2.079-0.991,4.119-1.987,6.116-2.997c0.156-0.079,0.305-0.162,0.465-0.24
	c1.826-0.924,3.614-1.858,5.363-2.796c0.534-0.284,1.051-0.57,1.578-0.858c1.359-0.739,2.692-1.479,4-2.221
	c0.588-0.338,1.173-0.67,1.75-1.009c1.255-0.724,2.472-1.45,3.67-2.184c0.518-0.313,1.046-0.626,1.552-0.941
	c1.649-1.022,3.255-2.045,4.787-3.062l4.421-2.945l-0.161-0.119c6.011-4.317,11.016-8.667,14.269-12.847
	c0.009,0.041,0.026,0.079,0.035,0.121c0.066,0.259,0.113,0.526,0.175,0.785c0.319,1.343,0.616,2.689,0.864,4.041
	c0.102,0.547,0.178,1.101,0.269,1.649c0.177,1.072,0.341,2.141,0.473,3.214c0.077,0.625,0.133,1.256,0.193,1.883
	c0.097,1.01,0.184,2.018,0.244,3.029c0.04,0.649,0.069,1.298,0.09,1.946c0.034,0.999,0.05,1.997,0.047,2.998
	c0,0.643-0.002,1.287-0.018,1.929c-0.026,1.026-0.082,2.05-0.145,3.074c-0.04,0.608-0.069,1.212-0.12,1.818
	c-0.099,1.141-0.233,2.276-0.381,3.407c-0.063,0.476-0.104,0.959-0.175,1.435c-0.237,1.611-0.518,3.215-0.853,4.811
	c-0.034,0.162-0.083,0.322-0.116,0.485c-0.31,1.424-0.651,2.849-1.038,4.254c-0.144,0.521-0.31,1.035-0.465,1.556
	c-0.31,1.045-0.623,2.088-0.977,3.123c-0.204,0.597-0.425,1.185-0.643,1.778c-0.347,0.946-0.704,1.889-1.086,2.823
	c-0.249,0.61-0.512,1.219-0.779,1.825c-0.4,0.91-0.815,1.813-1.247,2.708c-0.29,0.592-0.578,1.185-0.877,1.775
	c-0.295,0.572-0.615,1.134-0.921,1.7c-0.905,1.66-1.863,3.275-2.863,4.844c-0.137,0.214-0.266,0.427-0.402,0.64
	c-0.065,0.099-0.125,0.2-0.189,0.296c-1.16,1.769-2.364,3.485-3.632,5.119C406.815,280.007,388.156,282.57,366.823,282.988z
	 M285.916,186.562c10.026,15.783,41.117,35.761,65.041,47.933c3.949,2.009,7.932,3.908,11.915,5.75
	c-0.922,0.373-1.792,0.749-2.732,1.121c-5.944,2.348-11.838,4.487-17.586,6.403c-0.079,0.025-0.156,0.047-0.235,0.073
	c-2.653,0.879-5.271,1.708-7.852,2.489c-1.392,0.418-2.715,0.782-4.062,1.167c-1.136,0.321-2.28,0.658-3.394,0.961
	c-2.088,0.561-4.11,1.075-6.075,1.55c-0.24,0.059-0.485,0.122-0.721,0.179c-9.245,2.196-17.07,3.42-23.352,3.915
	c-1.093-0.468-2.109-0.929-3.014-1.38c-1.385-2.18-2.653-4.473-3.84-6.831c-0.133-0.264-0.266-0.522-0.397-0.785
	c-1.181-2.416-2.271-4.904-3.229-7.472l-0.056-0.147C279.811,223.865,279.592,204.368,285.916,186.562z M369.363,198.313
	c2.161,1.099,4.257,2.236,6.365,3.362c1.73,0.927,3.457,1.857,5.149,2.804c1.218,0.68,2.409,1.369,3.604,2.053
	c1.659,0.953,3.318,1.902,4.924,2.867c1.31,0.784,2.571,1.577,3.846,2.366c1.399,0.866,2.822,1.733,4.174,2.601
	c2.569,1.655,5.076,3.317,7.464,4.982c-2.069,1.293-4.242,2.608-6.582,3.948c-0.375,0.213-0.749,0.426-1.127,0.639
	c-0.463,0.26-0.967,0.525-1.441,0.79c-1.783,0.987-3.582,1.974-5.459,2.953c-0.591,0.31-1.224,0.622-1.83,0.932
	c-2.036,1.042-4.116,2.079-6.244,3.101c-0.624,0.303-1.252,0.6-1.884,0.9c-0.038,0.018-0.076,0.037-0.114,0.055
	c-2.207,1.041-4.461,2.072-6.75,3.088c-0.422,0.187-0.843,0.372-1.269,0.56c-5.944-2.599-11.948-5.435-17.866-8.447
	c-46.354-23.583-66.673-46.211-64.122-51.228C292.761,171.626,323.008,174.729,369.363,198.313z M279.353,254.039
	c0.064-0.261,0.137-0.525,0.254-0.819c0.364-0.922,0.991-2.056,2.08-3.471c0.037,0.08,0.082,0.157,0.119,0.24
	c0.799,1.756,1.658,3.491,2.577,5.2c0.152,0.279,0.287,0.566,0.44,0.846c0.395,0.714,0.823,1.415,1.239,2.12
	c-3.938-0.415-6.255-1.377-6.777-2.695l-0.003-0.003c-0.09-0.235-0.094-0.559-0.046-0.921
	C279.25,254.39,279.31,254.204,279.353,254.039z M427.625,195.296c0.141,0.082,0.278,0.177,0.418,0.281
	c0.095,0.071,0.18,0.142,0.258,0.213c0.192,0.177,0.362,0.375,0.47,0.599c0.011,0.023,0.036,0.043,0.042,0.065
	c1.043,2.766-4.682,9.755-17.27,18.515c-1.2-0.86-2.424-1.722-3.675-2.581c-0.425-0.292-0.853-0.583-1.287-0.876
	c-4.281-2.904-8.825-5.791-13.585-8.639c-0.062-0.037-0.123-0.073-0.181-0.108c-2.493-1.488-5.034-2.962-7.632-4.421
	C410.926,191.808,423.789,193.02,427.625,195.296z M272.008,257.031c0.094,0.391,0.217,0.776,0.366,1.155l-0.003-0.001
	c0.003,0.009,0.006,0.021,0.01,0.028l0.003,0.007l0.166,0.417c0.834,2.11,1.766,4.183,2.763,6.225
	c0.329,0.67,0.703,1.321,1.048,1.983c0.705,1.355,1.421,2.704,2.201,4.019c0.127,0.214,0.229,0.438,0.356,0.653
	c-7.536-2.844-11.172-5.482-12.69-7.29c-0.018-0.023-0.043-0.046-0.06-0.075c-0.193-0.235-0.344-0.454-0.47-0.662
	c-0.09-0.156-0.183-0.313-0.24-0.449c-0.034-0.08-0.056-0.152-0.079-0.227c-0.057-0.19-0.101-0.375-0.094-0.515
	C265.337,261.285,266.918,259.241,272.008,257.031z M425.091,278.22c-5.875,40.42-41.713,70.64-83.344,68.668
	c-40.752-1.932-73.061-34.045-76.306-73.665c0.228,0.15,0.525,0.292,0.763,0.44c0.777,0.484,1.596,0.954,2.453,1.41
	c0.5,0.267,1.02,0.53,1.558,0.793c1.047,0.515,2.133,1.008,3.252,1.482c0.401,0.172,0.81,0.336,1.227,0.503
	c1.488,0.6,3.023,1.166,4.594,1.703c0.151,0.051,0.293,0.099,0.443,0.151c2.059,0.692,4.159,1.339,6.266,1.93l0.008,0.007
	l0.984,0.268l0.194,0.054c1.815,0.49,3.705,0.968,5.666,1.429c0.01,0.004,0.026,0.003,0.036,0.009
	c0.026,0.005,0.047,0.013,0.074,0.018c0.059,0.015,0.122,0.026,0.18,0.039c0.391,0.093,0.807,0.178,1.205,0.266
	c1.624,0.367,3.266,0.725,4.954,1.065c0.633,0.127,1.289,0.245,1.935,0.371c1.534,0.294,3.082,0.584,4.666,0.856
	c0.634,0.106,1.284,0.213,1.927,0.316c1.649,0.273,3.315,0.533,5.011,0.777c0.621,0.088,1.241,0.18,1.866,0.263
	c1.756,0.244,3.53,0.472,5.328,0.689c0.615,0.073,1.228,0.147,1.85,0.219c1.825,0.207,3.671,0.399,5.534,0.576
	c0.629,0.063,1.252,0.127,1.884,0.184c1.886,0.172,3.787,0.324,5.704,0.464c0.623,0.047,1.237,0.1,1.864,0.144
	c2.503,0.171,5.025,0.322,7.568,0.443c32.172,1.525,61.64-1.457,76.898-7.781l0.884-0.362l0.598-0.75
	c0.027-0.032,0.051-0.068,0.075-0.104C423.646,280.161,424.375,279.202,425.091,278.22z"/>
</svg>
