<?xml version="1.0" encoding="iso-8859-1"?>
<!-- Generator: Adobe Illustrator 18.0.0, SVG Export Plug-In . SVG Version: 6.00 Build 0)  -->
<!DOCTYPE svg PUBLIC "-//W3C//DTD SVG 1.1//EN" "http://www.w3.org/Graphics/SVG/1.1/DTD/svg11.dtd">
<svg version="1.1" id="Capa_1" xmlns="http://www.w3.org/2000/svg" xmlns:xlink="http://www.w3.org/1999/xlink" x="0px" y="0px"
	 viewBox="0 0 394.103 394.103" style="enable-background:new 0 0 394.103 394.103;" xml:space="preserve">
<g>
	<path d="M206.41,75.771c20.891,0,37.886-16.996,37.886-37.886S227.301,0,206.41,0s-37.886,16.996-37.886,37.886
		S185.52,75.771,206.41,75.771z M206.41,20c9.862,0,17.886,8.023,17.886,17.886s-8.023,17.886-17.886,17.886
		s-17.886-8.023-17.886-17.886S196.548,20,206.41,20z"/>
	<path d="M281.018,150.956h-18.363v-21.583c0-25.208-20.508-45.716-45.716-45.716h-21.057c-25.208,0-45.716,20.508-45.716,45.716
		v21.583h-37.081c-5.522,0-10,4.477-10,10v34.499c0,5.523,4.478,10,10,10h0.411v178.648c0,5.523,4.478,10,10,10h147.11
		c5.522,0,10-4.477,10-10V205.455h0.411c5.522,0,10-4.477,10-10v-34.499C291.018,155.433,286.54,150.956,281.018,150.956z
		 M133.496,205.455h127.11v168.648h-127.11V205.455z M271.018,170.956v14.499H123.085v-14.499H271.018z M170.166,129.374
		c0-14.18,11.536-25.716,25.716-25.716h21.057c14.18,0,25.716,11.536,25.716,25.716v21.583h-35.603v-16.987c0-5.523-4.478-10-10-10
		s-10,4.477-10,10v16.987h-16.886V129.374z"/>
</g>
<g>
</g>
<g>
</g>
<g>
</g>
<g>
</g>
<g>
</g>
<g>
</g>
<g>
</g>
<g>
</g>
<g>
</g>
<g>
</g>
<g>
</g>
<g>
</g>
<g>
</g>
<g>
</g>
<g>
</g>
</svg>
