<?xml version="1.0" encoding="iso-8859-1"?>
<!-- Generator: Adobe Illustrator 17.1.0, SVG Export Plug-In . SVG Version: 6.00 Build 0)  -->
<!DOCTYPE svg PUBLIC "-//W3C//DTD SVG 1.1//EN" "http://www.w3.org/Graphics/SVG/1.1/DTD/svg11.dtd">
<svg version="1.1" id="Capa_1" xmlns="http://www.w3.org/2000/svg" xmlns:xlink="http://www.w3.org/1999/xlink" x="0px" y="0px"
	 viewBox="0 0 99.269 99.269" style="enable-background:new 0 0 99.269 99.269;" xml:space="preserve">
<g>
	<path d="M81.202,38.025h-1.119c0.025-0.087,0.054-0.172,0.054-0.267c0-0.552-0.448-1-1-1h-2.024v-5.612
		c1.995-0.457,3.49-2.238,3.49-4.369v-2.295c0-0.929-0.787-1.43-1.527-1.43h-5.786c-0.966,0-1.668,0.601-1.668,1.43v2.295
		c0,2.131,1.496,3.912,3.491,4.369v5.612h-2.024c-0.552,0-1,0.448-1,1c0,0.095,0.029,0.18,0.054,0.267h-1.663
		c0.025-0.087,0.054-0.172,0.054-0.267c0-0.552-0.448-1-1-1h-2.025v-5.612c1.995-0.457,3.49-2.238,3.49-4.369v-2.295
		c0-0.929-0.787-1.43-1.526-1.43h-5.786c-0.967,0-1.668,0.601-1.668,1.43v2.295c0,2.131,1.496,3.912,3.49,4.369v5.612h-2.024
		c-0.552,0-1,0.448-1,1c0,0.095,0.029,0.18,0.054,0.267h-1.413c-0.729,0-1.361,0.395-1.711,0.978
		c-0.758-0.068-1.744-0.608-2.153-1.203l-7.017-10.222c-0.081-0.118-0.179-0.212-0.272-0.314c-0.013-0.016-0.027-0.031-0.041-0.047
		c-0.064-0.067-0.127-0.136-0.196-0.195c-0.34-0.333-0.753-0.598-1.241-0.741l-7.096-2.078c-0.908-0.266-1.867-0.042-2.601,0.49
		c-0.322,0.178-0.632,0.385-0.905,0.65L17.289,45.34c-0.774,0.751-1.208,1.756-1.222,2.83c-0.013,1.047,0.378,2.032,1.104,2.772
		c0.732,0.748,1.72,1.16,2.779,1.16c1.062,0,2.064-0.413,2.823-1.164l10.799-10.683l-4.955,16.922
		c-0.442,1.511,0.311,3.209,1.715,3.912v33.18c0,2.757,2.243,5,5,5h1.166c2.757,0,5-2.243,5-5V60.941
		c0-0.024-0.007-0.047-0.007-0.071l6.895-23.547l5.943,7.408c0.826,1.03,2.428,1.778,3.808,1.778c0,0,0,0,0,0
		c0.102,0,0.201-0.004,0.299-0.012l9.046-0.748c1.605-0.132,2.912-1.55,2.912-3.161v-0.563h10.809c1.104,0,2-0.896,2-2
		S82.307,38.025,81.202,38.025z"/>
	<path d="M45.991,21.677c1.015,0.297,2.061,0.447,3.109,0.447c4.876,0,9.24-3.271,10.611-7.955
		c1.713-5.854-1.654-12.009-7.506-13.722C51.189,0.151,50.142,0,49.093,0c-4.875,0-9.239,3.271-10.612,7.955
		c-0.83,2.834-0.505,5.823,0.913,8.416S43.155,20.847,45.991,21.677z"/>
</g>
<g>
</g>
<g>
</g>
<g>
</g>
<g>
</g>
<g>
</g>
<g>
</g>
<g>
</g>
<g>
</g>
<g>
</g>
<g>
</g>
<g>
</g>
<g>
</g>
<g>
</g>
<g>
</g>
<g>
</g>
</svg>
